<svg width="64" height="64" version="1.1" viewBox="0 0 64 64" xmlns="http://www.w3.org/2000/svg">
 <style>path { fill: #000; } @media (prefers-color-scheme: dark) { path { fill: #fff; } }</style>
 <path d="m63.108 35.772-19.021 10.353 1.2384-6.2273 10.898-5.9442-8.8172-6.0432 1.2384-6.2273 15.356 10.402zm-47.752 10.353-15.356-10.353 0.89163-3.6868 19.021-10.402-1.1888 6.2273-10.947 6.0432 8.8172 5.9442zm30.882-40.233c-8.8886 0-15.383 9.8865-20.682 31.895-5.2986 22.008-10.152 24.508-12.818 24.563-1.4282 0.02914-2.2067-2.0285-1.5134-2.5585 0.48143-0.29261 1.4347-1.0394 1.4908-2.0052 0.06261-1.0785-0.85506-1.708-1.9656-1.6823-1.1497 0.0268-2.1104 1.245-2.1822 2.5007-0.00653 0.11571-0.00358 0.22916-0.027087 1.3425-0.023486 1.1133 1.2896 4.0524 4.1992 4.0524 8.281 0 16.448-9.5188 20.431-26.051 2.6701-11.083 6.7276-30.518 12.96-30.518 2.0643 0 1.961 1.8517 1.3781 2.3424-0.58292 0.49074-1.2358 1.0165-1.2919 1.9822-0.06263 1.0785 0.30444 2.3594 1.8697 2.323 1.568-0.03646 2.6681-1.1991 2.7265-2.8164 0.0048-0.12594-0.0042-0.24917-0.02578-0.3692-0.04584-2.1972-1.3313-5.0009-4.5488-5.0009z"/>
</svg>
